<svg id="Calque_1" data-name="Calque 1" xmlns="http://www.w3.org/2000/svg" xmlns:xlink="http://www.w3.org/1999/xlink" viewBox="0 0 393.27 190.79"><defs><linearGradient id="Dégradé_sans_nom_13" x1="196.64" y1="191.68" x2="196.64" y2="-0.15" gradientUnits="userSpaceOnUse"><stop offset="0" stop-color="#c7342b"/><stop offset="1" stop-color="#f48e1e"/></linearGradient></defs><title>pulse_1</title><polygon points="0 131.2 153.33 130.4 152.56 130.98 174.58 53.83 175.88 49.25 176.62 53.96 185.21 108.49 193.71 163.03 191.13 162.99 220.29 8.24 221.84 0 223.18 8.28 237.27 95.42 251.29 182.56 248.63 182.54 260.91 114.69 273.31 46.87 274.44 40.67 275.46 46.88 295.15 166.38 293.81 166.28 305.41 130.51 305.52 130.18 305.87 130.18 393.27 130.66 305.87 131.14 306.33 130.81 295.13 166.7 294.28 169.44 293.79 166.6 273.31 47.24 275.46 47.25 263.43 115.14 251.29 183.01 249.9 190.79 248.63 182.99 234.42 95.88 220.28 8.75 223.17 8.79 193.7 163.47 192.27 170.96 191.12 163.43 182.79 108.86 174.55 54.28 176.59 54.41 154.1 131.43 153.93 132.01 153.33 132 0 131.2" style="fill:url(#Dégradé_sans_nom_13)"/></svg>