<svg xmlns="http://www.w3.org/2000/svg" viewBox="0 0 1256.04 492.85"><defs><style>.a{fill:#c1272d;}.b{fill:#fff;}</style></defs><title>logo</title><path class="a" d="M0,439.31V413.46H7.81A120.11,120.11,0,0,0,27.49,412a40,40,0,0,0,16.08-6.16,30.82,30.82,0,0,0,10.82-13.37q3.9-8.71,3.9-23.14V70q0-14.42-3.9-23.14A30.89,30.89,0,0,0,43.57,33.5a40.24,40.24,0,0,0-16.08-6.16,122.35,122.35,0,0,0-19.68-1.5H0V0H179.09V25.84H171a133.78,133.78,0,0,0-19.39,1.35,39.64,39.64,0,0,0-16.07,5.86,31.27,31.27,0,0,0-11,12.77q-4,8.28-4.06,21.79v341h121.4q13.81,0,23.59-5a47.9,47.9,0,0,0,16.07-12.92,60.6,60.6,0,0,0,9.77-17.88A95.15,95.15,0,0,0,296,353l6-46h32.15L329.91,439.2Z"/><path class="b" d="M268,176.54a56.71,56.71,0,0,1-22.28-4.19,44.06,44.06,0,0,1-16.67-12.21,55.53,55.53,0,0,1-10.44-19.72A89.22,89.22,0,0,1,215,113.88q0-32.07,13.18-48.26t37.53-16.2a54,54,0,0,1,19.88,3.47,38.9,38.9,0,0,1,15,10.33A47,47,0,0,1,310,80.31a77.57,77.57,0,0,1,3.29,23.74v10.5h-76.2a94.92,94.92,0,0,0,2.52,21.5,42.06,42.06,0,0,0,6.59,14.8,25.86,25.86,0,0,0,10.55,8.54,35.62,35.62,0,0,0,14.41,2.75,42.93,42.93,0,0,0,11-1.34,41.74,41.74,0,0,0,9.21-3.57,38.57,38.57,0,0,0,7.33-5.09,29.71,29.71,0,0,0,5.19-6,7.21,7.21,0,0,1,3,2.79,9,9,0,0,1,1.4,5,14.19,14.19,0,0,1-2.46,7.42,24.52,24.52,0,0,1-7.48,7.32,46.31,46.31,0,0,1-12.57,5.59A63.17,63.17,0,0,1,268,176.54ZM265.21,61.71q-12.73,0-19.6,10.33t-8.1,30.22h52.61a93.42,93.42,0,0,0-1.34-16.53,42.6,42.6,0,0,0-4.24-12.85,21.4,21.4,0,0,0-7.65-8.26,22,22,0,0,0-11.65-2.91Z"/><path class="b" d="M372.81,176.54A73.43,73.43,0,0,1,357.23,175a36.71,36.71,0,0,1-11.9-4.58,22.23,22.23,0,0,1-7.59-7.59,20.34,20.34,0,0,1-2.68-10.56,17.35,17.35,0,0,1,1.5-7.65,14.43,14.43,0,0,1,3.69-4.86,13.07,13.07,0,0,1,4.69-2.51,16.19,16.19,0,0,1,4.53-.73,49.22,49.22,0,0,0,1.22,11.28,25.12,25.12,0,0,0,4.14,9.22,20,20,0,0,0,7.65,6.25,26.64,26.64,0,0,0,11.67,2.29A35.56,35.56,0,0,0,385,164.14a22.38,22.38,0,0,0,7.87-4.25,18.2,18.2,0,0,0,4.86-6.59,20.85,20.85,0,0,0,1.68-8.43,18.88,18.88,0,0,0-1.29-7.32,15.25,15.25,0,0,0-4.47-5.75,46.13,46.13,0,0,0-8.65-5.48q-5.47-2.79-13.74-6.36-8.83-3.92-15.36-7.54a48.24,48.24,0,0,1-10.78-7.88,28,28,0,0,1-6.37-9.66A35.45,35.45,0,0,1,336.63,82a30.06,30.06,0,0,1,3.07-13.85A27.93,27.93,0,0,1,348.47,58a41.78,41.78,0,0,1,13.63-6.2,68.67,68.67,0,0,1,17.65-2.12,56,56,0,0,1,14.41,1.67,35.36,35.36,0,0,1,10.5,4.53A19.43,19.43,0,0,1,411,62.6a16.53,16.53,0,0,1,2.13,8.1,12.6,12.6,0,0,1-4.3,10q-4.31,3.75-12.24,3.75,0-11.51-4.74-17.88t-14.93-6.43A32.45,32.45,0,0,0,367,61.48a17.63,17.63,0,0,0-6.76,3.8,14.73,14.73,0,0,0-3.85,5.8,21.34,21.34,0,0,0-1.23,7.38A16.78,16.78,0,0,0,356.73,86a17.12,17.12,0,0,0,5,5.86,44.4,44.4,0,0,0,8.82,5.19q5.42,2.52,13,5.65a143.93,143.93,0,0,1,15.53,7.48,46.84,46.84,0,0,1,10.67,8A28.14,28.14,0,0,1,416,128a36.62,36.62,0,0,1,2,12.62,35.59,35.59,0,0,1-3.24,15.64,30.84,30.84,0,0,1-9.16,11.23,40.64,40.64,0,0,1-14.24,6.76A71.69,71.69,0,0,1,372.81,176.54Z"/><path class="b" d="M477.19,61.26v-9.6h57.19v9.6h-2.9q-6.93,0-10.33,2.68c-2.28,1.79-3.41,4.58-3.41,8.38a17.92,17.92,0,0,0,.44,3.86,44.28,44.28,0,0,0,1.35,4.52l15.52,43.23q1.5,4,3,8.88t3,9.55c1,3.13,1.77,6.09,2.51,8.88a71.75,71.75,0,0,1,1.57,7.09h.78a56,56,0,0,1,1.84-6.08q1.28-3.63,2.9-7.94t3.36-8.76c1.15-3,2.24-5.85,3.29-8.61l16.42-44.56A29.66,29.66,0,0,0,575.34,77a23.08,23.08,0,0,0,.5-4.46q0-5.92-3.74-8.61c-2.5-1.78-6.27-2.68-11.34-2.68h-1.67v-9.6h49v9.6H605.3a19.54,19.54,0,0,0-5.69.73,9.83,9.83,0,0,0-4.25,2.74,22.74,22.74,0,0,0-3.63,5.47q-1.74,3.47-3.85,8.94L551.8,174.31H530.92L494.17,73.44a34,34,0,0,0-2.79-5.92A13.31,13.31,0,0,0,488,63.78a11.71,11.71,0,0,0-4.36-2,26.38,26.38,0,0,0-5.81-.56Z"/><path class="b" d="M728.18,112.76q0,32.28-13.68,48t-40,15.75a59.63,59.63,0,0,1-22.23-3.91,42.51,42.51,0,0,1-16.7-11.84A53.77,53.77,0,0,1,625,140.85q-3.63-12-3.63-28.09,0-32.06,13.57-47.7T675.1,49.42a60.42,60.42,0,0,1,22.22,3.86A42.39,42.39,0,0,1,714,65a53.26,53.26,0,0,1,10.5,19.77Q728.18,96.67,728.18,112.76Zm-84.67,0a132.85,132.85,0,0,0,1.68,22.45,49.47,49.47,0,0,0,5.42,16.25,25.59,25.59,0,0,0,9.72,9.89,29.43,29.43,0,0,0,14.57,3.35q8.61,0,14.52-3.35a25.38,25.38,0,0,0,9.61-9.89,49.43,49.43,0,0,0,5.31-16.25A138.36,138.36,0,0,0,706,112.76a130.55,130.55,0,0,0-1.68-22.34,49,49,0,0,0-5.36-16,24.65,24.65,0,0,0-9.66-9.66,30.34,30.34,0,0,0-14.58-3.24q-8.61,0-14.52,3.24a24.72,24.72,0,0,0-9.61,9.66,49,49,0,0,0-5.36,16,130.55,130.55,0,0,0-1.68,22.34Z"/><path class="b" d="M749.07,164.7a49.74,49.74,0,0,0,7.21-.5,15.83,15.83,0,0,0,6-2.07,10.77,10.77,0,0,0,4.08-4.63,18.46,18.46,0,0,0,1.51-8.1V76.9a18.46,18.46,0,0,0-1.51-8.1,11.5,11.5,0,0,0-4.08-4.74,15.44,15.44,0,0,0-6-2.24,44.64,44.64,0,0,0-7.21-.56h-.67v-9.6h40.89v96.62a20.59,20.59,0,0,0,1.5,8.6,12.07,12.07,0,0,0,4,5,14.28,14.28,0,0,0,6,2.29,45.26,45.26,0,0,0,7.26.56h3v9.61h-65v-9.61ZM764.6,14.57a19.33,19.33,0,0,1,1-6.7,11.28,11.28,0,0,1,2.8-4.36,10.07,10.07,0,0,1,4.13-2.34A18.56,18.56,0,0,1,777.67.5a18,18,0,0,1,5,.67,9.55,9.55,0,0,1,4.08,2.34,11.89,11.89,0,0,1,2.79,4.36,21.46,21.46,0,0,1,0,13.4,11.89,11.89,0,0,1-2.79,4.36,10,10,0,0,1-4.08,2.4,16.63,16.63,0,0,1-5,.73,17.22,17.22,0,0,1-5.14-.73,10.43,10.43,0,0,1-4.13-2.4,11.28,11.28,0,0,1-2.8-4.36A19.1,19.1,0,0,1,764.6,14.57Z"/><path class="b" d="M901.77,68c0-2.76-1.17-4.56-3.52-5.42a25.84,25.84,0,0,0-8.77-1.29h-.67v-9.6h50v9.6h-2a30.24,30.24,0,0,0-6.08.56,17.31,17.31,0,0,0-5.37,2.12A27,27,0,0,0,920,68.41a83,83,0,0,0-6.26,7.49l-23.57,31.39,33.62,45.23q5,6.71,9.55,9.44a16.89,16.89,0,0,0,8.77,2.74h3v9.61H886V164.7h1.12q13.74,0,13.74-7.6a10.12,10.12,0,0,0-.34-2.51,12.4,12.4,0,0,0-1.34-3c-.67-1.16-1.56-2.55-2.68-4.19s-2.57-3.65-4.36-6l-15.3-20.55-16,22.34c-.67.9-1.38,1.94-2.13,3.13a36.46,36.46,0,0,0-2,3.69,25.15,25.15,0,0,0-1.45,3.85,13.49,13.49,0,0,0-.56,3.74,5.68,5.68,0,0,0,3.24,5.53q3.24,1.62,11,1.62h.67v9.61H815.1v-9.61h2.12a34.67,34.67,0,0,0,7.26-.67,19.2,19.2,0,0,0,5.92-2.35,28.09,28.09,0,0,0,5.6-4.59,88.12,88.12,0,0,0,6.14-7.09L871,112.74,842.14,73.42a47.73,47.73,0,0,0-9.77-9,17.83,17.83,0,0,0-9.89-3.13h-3v-9.6h58.09v9.6h-.67a33.53,33.53,0,0,0-6.48.51,11.45,11.45,0,0,0-4,1.45,5.26,5.26,0,0,0-2,2.18,6,6,0,0,0-.56,2.57,8.76,8.76,0,0,0,1.4,4.63c.93,1.53,2.25,3.48,4,5.87l15.08,20.55L896.18,82a54.94,54.94,0,0,0,4.14-7.37A16.11,16.11,0,0,0,901.77,68Z"/><path class="b" d="M1119.79,149.14a18.6,18.6,0,0,0,1.5,8.1,11.66,11.66,0,0,0,4.08,4.75,14.68,14.68,0,0,0,6,2.18,49.5,49.5,0,0,0,7.2.5h1.9v9.61h-38.76l-2.46-20.56h-.89a53.16,53.16,0,0,1-5.87,9.44,34.58,34.58,0,0,1-7.54,7.15,33.67,33.67,0,0,1-9.6,4.58,41.74,41.74,0,0,1-12.07,1.62,50.21,50.21,0,0,1-20-3.74,36,36,0,0,1-14.63-11.51q-5.93-7.75-8.94-19.71t-3-28.37a119.73,119.73,0,0,1,3-28.6q3-12.08,8.94-19.88a35.74,35.74,0,0,1,14.62-11.56,50.22,50.22,0,0,1,20-3.75,45.39,45.39,0,0,1,12,1.46,35.44,35.44,0,0,1,9.66,4.13,36,36,0,0,1,7.65,6.37,42.52,42.52,0,0,1,5.81,8.15h1.34c-.22-3.72-.45-7.22-.67-10.5q-.22-4.24-.45-8.43c-.15-2.8-.22-4.86-.22-6.2V25.63a18.46,18.46,0,0,0-1.51-8.1,11.5,11.5,0,0,0-4.08-4.74,14.49,14.49,0,0,0-6-2.18,48.37,48.37,0,0,0-7.21-.51h-1.9V.5h42.12Zm-52.62,12.74q8.94,0,14.92-3a23,23,0,0,0,9.6-9,42.72,42.72,0,0,0,5.14-15.2,134,134,0,0,0,1.51-21.55A131,131,0,0,0,1096.83,92a44.48,44.48,0,0,0-5.14-15.36,24.47,24.47,0,0,0-9.66-9.43Q1076,64,1067,64a23,23,0,0,0-21.61,12.73,49.39,49.39,0,0,0-5,15.47,127.15,127.15,0,0,0-1.57,21.17q0,24.35,6.59,36.41t21.81,12.15Z"/><path class="b" d="M1210.15,176.54a56.71,56.71,0,0,1-22.28-4.19,44.1,44.1,0,0,1-16.7-12.23,55.71,55.71,0,0,1-10.45-19.72,89.15,89.15,0,0,1-3.63-26.52q0-32.07,13.19-48.26t37.53-16.2a54,54,0,0,1,19.88,3.47,38.9,38.9,0,0,1,15,10.33,46.82,46.82,0,0,1,9.44,17.09,77.57,77.57,0,0,1,3.29,23.74v10.5h-76.18a95.48,95.48,0,0,0,2.51,21.5,42.24,42.24,0,0,0,6.59,14.8,26,26,0,0,0,10.56,8.54,35.44,35.44,0,0,0,14.41,2.74,42.93,42.93,0,0,0,11-1.34,41.82,41.82,0,0,0,9.22-3.57,37.67,37.67,0,0,0,7.31-5.09,29.18,29.18,0,0,0,5.2-6,7.21,7.21,0,0,1,3,2.79,9,9,0,0,1,1.4,5,14.31,14.31,0,0,1-2.46,7.42,24.55,24.55,0,0,1-7.49,7.32,46.25,46.25,0,0,1-12.56,5.59A62.81,62.81,0,0,1,1210.15,176.54Zm-2.79-114.83q-12.73,0-19.6,10.33t-8.1,30.22h52.61a94.38,94.38,0,0,0-1.34-16.53,42.62,42.62,0,0,0-4.25-12.85,21.25,21.25,0,0,0-7.65-8.26A21.87,21.87,0,0,0,1207.36,61.71Z"/><path class="b" d="M438.88,324.34a26.12,26.12,0,0,0-10.67,1.84,15,15,0,0,0-6.37,5.19,20,20,0,0,0-3.07,7.93,59.13,59.13,0,0,0-.78,9.94q-9.5,0-14.47-3.23t-5-11.17a15.79,15.79,0,0,1,3.24-10.06,23.79,23.79,0,0,1,8.88-6.76,50.82,50.82,0,0,1,13.16-3.88,98.51,98.51,0,0,1,16-1.23A72,72,0,0,1,458.12,315a31.29,31.29,0,0,1,13.07,6.76A28.56,28.56,0,0,1,479.06,334a56.75,56.75,0,0,1,2.63,18.48v59.32a33.56,33.56,0,0,0,.78,7.93,11.8,11.8,0,0,0,2.46,5,9,9,0,0,0,4.41,2.68,24,24,0,0,0,6.53.78h.67v9.6h-31L462,418.14h-1.9q-3.57,4.82-6.93,8.83a40,40,0,0,1-7.37,6.92,31.64,31.64,0,0,1-9.1,4.53A40.45,40.45,0,0,1,424.47,440a44.57,44.57,0,0,1-14.13-2.18,30,30,0,0,1-11.29-6.7,31.17,31.17,0,0,1-7.42-11.4A44.52,44.52,0,0,1,389,403.51q0-18.19,12.95-27t39.21-9.61l19-.67V352.49a87.56,87.56,0,0,0-.67-11.33,23.17,23.17,0,0,0-2.9-8.94,15.11,15.11,0,0,0-6.43-5.81Q445.92,324.32,438.88,324.34Zm-27.71,80.31q0,10.73,4.53,16t14,5.3a33.9,33.9,0,0,0,12.56-2.23,26.68,26.68,0,0,0,9.61-6.37,28,28,0,0,0,6.09-10,39.08,39.08,0,0,0,2.14-13.21V375.6l-14.63.67a69.23,69.23,0,0,0-16.26,2.4,27.94,27.94,0,0,0-10.55,5.47,19.62,19.62,0,0,0-5.75,8.66A36.92,36.92,0,0,0,411.17,404.65Z"/><path class="b" d="M659.07,320a14.56,14.56,0,0,1-.73,4.63,10.77,10.77,0,0,1-2.18,3.8,10.15,10.15,0,0,1-3.74,2.57,13.94,13.94,0,0,1-5.42,1,11,11,0,0,0-.33-2.68,7.41,7.41,0,0,0-1.18-2.51,5.94,5.94,0,0,0-2.29-1.9,8.52,8.52,0,0,0-3.79-.73,19.39,19.39,0,0,0-5.25.67,17.19,17.19,0,0,0-4.58,2.12A41.7,41.7,0,0,1,636,338.29q2.5,6.54,2.51,16.37a46,46,0,0,1-2.57,15.69,34.09,34.09,0,0,1-7.65,12.46A35,35,0,0,1,615.45,391a51,51,0,0,1-18.16,3c-.89,0-1.89,0-3-.06l-3.35-.11a25.12,25.12,0,0,1-3.13-.23l-2.35-.27a40.57,40.57,0,0,0-4.24,2.45,19,19,0,0,0-3.52,3,13.36,13.36,0,0,0-2.4,3.8,12,12,0,0,0-.89,4.69,8.22,8.22,0,0,0,1.06,4.47,7.12,7.12,0,0,0,3,2.62,12.94,12.94,0,0,0,4.52,1.23,53.12,53.12,0,0,0,5.64.28H614.5a52,52,0,0,1,17.42,2.57,31,31,0,0,1,11.67,7.09,27,27,0,0,1,6.6,10.84,43.77,43.77,0,0,1,2.06,13.68,42.26,42.26,0,0,1-3.63,17.76,34.35,34.35,0,0,1-11.11,13.46,55.29,55.29,0,0,1-18.94,8.55,106.76,106.76,0,0,1-27,3q-23.91,0-35.75-8.82T544,459.38a27.36,27.36,0,0,1,2.35-11.73,26.64,26.64,0,0,1,6.31-8.6,33.57,33.57,0,0,1,9.1-5.81A48.15,48.15,0,0,1,572.6,430a21.93,21.93,0,0,1-4.58-2.69,20.48,20.48,0,0,1-6.91-9.36,19.35,19.35,0,0,1-1.11-6.7,19.71,19.71,0,0,1,3.57-11.79q3.57-5,11.39-9.66a29.27,29.27,0,0,1-8.76-5.53,33.76,33.76,0,0,1-6.48-8,39.63,39.63,0,0,1-4-9.88,43.44,43.44,0,0,1-1.4-11.06A54.6,54.6,0,0,1,557,337.58a33.72,33.72,0,0,1,21.45-21.67A55.49,55.49,0,0,1,597.32,313a54.38,54.38,0,0,1,8.16.62,51.14,51.14,0,0,1,7.43,1.67,44.9,44.9,0,0,1,6.14,2.4,20.32,20.32,0,0,1,4.41,2.8q1.68-1.78,3.91-4a33.73,33.73,0,0,1,5-4,30.24,30.24,0,0,1,6.09-3.07,20.16,20.16,0,0,1,7.09-1.23,17,17,0,0,1,6,1,11.89,11.89,0,0,1,4.18,2.57,10.37,10.37,0,0,1,2.52,3.8A12.37,12.37,0,0,1,659.07,320ZM562.56,458a31.35,31.35,0,0,0,1.34,9.38,16.84,16.84,0,0,0,4.69,7.49,23.25,23.25,0,0,0,9,4.91,49,49,0,0,0,14.4,1.79q12.3,0,20.28-2.07A34.4,34.4,0,0,0,625,473.73a20,20,0,0,0,6.59-8.77,31.63,31.63,0,0,0,1.9-11.11,21.58,21.58,0,0,0-1.44-8.71,12.23,12.23,0,0,0-4.47-5.36,19.47,19.47,0,0,0-7.32-2.74,58.29,58.29,0,0,0-10.05-.78H587.69a50.36,50.36,0,0,0-9.33.84,21.47,21.47,0,0,0-8,3.18,16.58,16.58,0,0,0-5.64,6.59,24.25,24.25,0,0,0-2.16,11.06Zm13.29-103.32q0,14.63,4.86,21.44t15.91,6.82a23.63,23.63,0,0,0,9.44-1.68,14.8,14.8,0,0,0,6.31-5.14,22.69,22.69,0,0,0,3.52-8.88,68.08,68.08,0,0,0,1.06-12.9q0-15.42-4.69-22.79t-15.86-7.39q-11.05,0-15.8,7.54t-4.75,22.93Z"/><path class="b" d="M782.38,412.91a18.46,18.46,0,0,0,1.51,8.1,10.85,10.85,0,0,0,4.08,4.64,15.83,15.83,0,0,0,6,2.07,49.5,49.5,0,0,0,7.2.5h.67v9.6h-36.3l-3-18.54h-1.12a41.2,41.2,0,0,1-7.65,10.5,34.32,34.32,0,0,1-18.71,9.44,66.32,66.32,0,0,1-10.72.84,46.84,46.84,0,0,1-16.09-2.57,28.41,28.41,0,0,1-11.84-8,36.6,36.6,0,0,1-7.31-14,71.46,71.46,0,0,1-2.52-20.21V340.43a18.6,18.6,0,0,0-1.5-8.1,11.66,11.66,0,0,0-4.08-4.75,15.58,15.58,0,0,0-6-2.23,44.52,44.52,0,0,0-7.2-.56h-.67v-9.65h41v79a66.57,66.57,0,0,0,1.18,13.29,26.49,26.49,0,0,0,3.91,9.83,17.16,17.16,0,0,0,7.37,6.09,28.41,28.41,0,0,0,11.56,2.07,29,29,0,0,0,13-2.69,24,24,0,0,0,8.94-7.54,33,33,0,0,0,5.19-11.67A62.72,62.72,0,0,0,761,388.44V341.3a20.8,20.8,0,0,0-1.51-8.65,12.07,12.07,0,0,0-4-5,14.41,14.41,0,0,0-5.92-2.29,46,46,0,0,0-7.32-.56h-.67v-9.66h40.88Z"/><path class="b" d="M872.75,440.06a56.71,56.71,0,0,1-22.28-4.19,44.1,44.1,0,0,1-16.7-12.23,55.55,55.55,0,0,1-10.45-19.72,89.17,89.17,0,0,1-3.63-26.53q0-32.06,13.18-48.25t37.54-16.2a54.19,54.19,0,0,1,19.88,3.46,38.82,38.82,0,0,1,15,10.34,46.82,46.82,0,0,1,9.44,17.09A77.5,77.5,0,0,1,918,367.56v10.5H841.84a95.57,95.57,0,0,0,2.51,21.51,42.24,42.24,0,0,0,6.59,14.8,26,26,0,0,0,10.56,8.54,35.44,35.44,0,0,0,14.41,2.74,42.93,42.93,0,0,0,11-1.34,42.35,42.35,0,0,0,9.22-3.58,37.62,37.62,0,0,0,7.31-5.08,29.18,29.18,0,0,0,5.2-6,7,7,0,0,1,3,2.79,8.92,8.92,0,0,1,1.39,5,14.3,14.3,0,0,1-2.45,7.43,24.55,24.55,0,0,1-7.49,7.32,46.06,46.06,0,0,1-12.56,5.58A62.81,62.81,0,0,1,872.75,440.06ZM870,325.23q-12.74,0-19.61,10.33t-8.09,30.22h52.61a94.49,94.49,0,0,0-1.34-16.54,42.83,42.83,0,0,0-4.25-12.84,21.28,21.28,0,0,0-7.65-8.27A22,22,0,0,0,870,325.23Z"/><path class="b" d="M1003.11,437.82h-66v-9.6h.67a46,46,0,0,0,7.32-.56,14.28,14.28,0,0,0,5.92-2.29,12.07,12.07,0,0,0,4-5,20.76,20.76,0,0,0,1.51-8.6V340.39a18.6,18.6,0,0,0-1.51-8.1,11.59,11.59,0,0,0-4.08-4.75,15.27,15.27,0,0,0-6-2.23,44.64,44.64,0,0,0-7.21-.56h-.67v-9.61h35.19l4.35,22.67h1.12c1.49-3.42,3-6.65,4.58-9.66a31.42,31.42,0,0,1,5.75-7.93,24.09,24.09,0,0,1,8.44-5.36,34.78,34.78,0,0,1,12.62-2q12.51,0,18.6,4.36a14.22,14.22,0,0,1,6.09,12.29,18.08,18.08,0,0,1-1.18,6.59,12.81,12.81,0,0,1-3.74,5.19,17.68,17.68,0,0,1-6.59,3.35,35.43,35.43,0,0,1-9.83,1.17c0-6.32-.89-10.89-2.68-13.68s-4.92-4.19-9.38-4.19a12.7,12.7,0,0,0-7.6,2.4,22.83,22.83,0,0,0-5.86,6.37,41.9,41.9,0,0,0-4.25,9.1,83.74,83.74,0,0,0-2.79,10.56,97.73,97.73,0,0,0-1.51,10.78q-.45,5.36-.45,9.72v36a18.46,18.46,0,0,0,1.51,8.1,10.85,10.85,0,0,0,4.08,4.64,15.83,15.83,0,0,0,6,2.07,49.5,49.5,0,0,0,7.2.5h6.37Z"/><path class="b" d="M1110.9,437.82h-66v-9.6h.67a46,46,0,0,0,7.32-.56,14.28,14.28,0,0,0,5.92-2.29,11.86,11.86,0,0,0,4-5,20.6,20.6,0,0,0,1.51-8.6V340.39a18.46,18.46,0,0,0-1.51-8.1,11.59,11.59,0,0,0-4.08-4.75,15.27,15.27,0,0,0-6-2.23,44.64,44.64,0,0,0-7.21-.56h-.67v-9.61H1080l4.36,22.67h1.11c1.49-3.42,3-6.65,4.58-9.66a31.71,31.71,0,0,1,5.76-7.93,24.05,24.05,0,0,1,8.43-5.36,35,35,0,0,1,12.62-2q12.51,0,18.6,4.36a14.22,14.22,0,0,1,6.09,12.29,17.87,17.87,0,0,1-1.18,6.59,12.65,12.65,0,0,1-3.74,5.19,17.68,17.68,0,0,1-6.59,3.35,35.43,35.43,0,0,1-9.83,1.17c0-6.32-.89-10.89-2.68-13.68s-4.91-4.19-9.38-4.19a12.79,12.79,0,0,0-7.6,2.4,22.83,22.83,0,0,0-5.86,6.37,41.9,41.9,0,0,0-4.25,9.1,83.74,83.74,0,0,0-2.79,10.56,97.73,97.73,0,0,0-1.51,10.78c-.29,3.57-.43,6.81-.44,9.72v36a18.6,18.6,0,0,0,1.5,8.1,10.85,10.85,0,0,0,4.08,4.64,15.83,15.83,0,0,0,6,2.07,49.5,49.5,0,0,0,7.2.5h6.37Z"/><path class="b" d="M1210.76,440.06a56.71,56.71,0,0,1-22.28-4.19,44.1,44.1,0,0,1-16.7-12.23,55.55,55.55,0,0,1-10.45-19.72,89.17,89.17,0,0,1-3.63-26.53q0-32.06,13.18-48.25t37.54-16.2a54.19,54.19,0,0,1,19.88,3.46,38.82,38.82,0,0,1,15,10.34,46.65,46.65,0,0,1,9.43,17.09,77.21,77.21,0,0,1,3.3,23.73v10.5h-76.18a95.57,95.57,0,0,0,2.51,21.51,42.24,42.24,0,0,0,6.59,14.8,26,26,0,0,0,10.56,8.54,35.44,35.44,0,0,0,14.41,2.74,42.93,42.93,0,0,0,11-1.34,42.35,42.35,0,0,0,9.22-3.58,37.62,37.62,0,0,0,7.31-5.08,29.18,29.18,0,0,0,5.2-6,7.15,7.15,0,0,1,3,2.79,8.92,8.92,0,0,1,1.39,5,14.3,14.3,0,0,1-2.45,7.43,24.55,24.55,0,0,1-7.49,7.32,45.92,45.92,0,0,1-12.56,5.58A62.81,62.81,0,0,1,1210.76,440.06ZM1208,325.23q-12.74,0-19.61,10.33t-8.09,30.22h52.61a94.49,94.49,0,0,0-1.34-16.54,42.83,42.83,0,0,0-4.25-12.84,21.35,21.35,0,0,0-7.65-8.27A22,22,0,0,0,1208,325.23Z"/></svg>