<?xml version="1.0"?>
<svg xmlns="http://www.w3.org/2000/svg" height="512px" viewBox="0 0 368 368" width="512px"><path d="m360 288h-56v-56c0-4.414062-3.574219-8-8-8h-72v-80h72c4.425781 0 8-3.585938 8-8v-64c0-4.414062-3.574219-8-8-8h-72v-56c0-4.414062-3.574219-8-8-8h-64c-4.425781 0-8 3.585938-8 8v56h-72c-4.425781 0-8 3.585938-8 8v64c0 4.414062 3.574219 8 8 8h72v80h-72c-4.425781 0-8 3.585938-8 8v56h-56c-4.425781 0-8 3.585938-8 8v64c0 4.414062 3.574219 8 8 8h352c4.425781 0 8-3.585938 8-8v-64c0-4.414062-3.574219-8-8-8zm-200-152c0-4.414062-3.574219-8-8-8h-72v-48h72c4.425781 0 8-3.585938 8-8v-56h48v56c0 4.414062 3.574219 8 8 8h72v48h-72c-4.425781 0-8 3.585938-8 8v88h-48zm-80 104h208v48h-208zm272 112h-336v-48h336zm0 0" fill="#FFFFFF"/></svg>
